# xmcd
#
# Track frame offsets:
#	150
#	3492
#	23203
#	44369
#	63532
#	80056
#	97893
#	118851
#	141997
#	164543
#	190179
#	216328
#	244914
#	259035
#	276174
#
# Disc length: 3896 seconds
#
# Revision: 0
# Processed by: cddbd v1.5.1PL0 Copyright (c) Steve Scherf et al.
# Submitted via: dBpowerAMP V4.0
#
DISCID=de0f360f
DTITLE=Funk Como Le Gusta - FCLG
DYEAR=2004
DGENRE=Funk
TTITLE0=Vinheta
TTITLE1=S. O. S.
TTITLE2=Latina
TTITLE3=Somos do Funk
TTITLE4=Vertiplano
TTITLE5=A Nega e o Rebolado
TTITLE6=Ta Chegando a Hora
TTITLE7=Aos Truta
TTITLE8=Tabasco
TTITLE9=Besame Mama
TTITLE10=Drive In
TTITLE11=Cerpinho Groove
TTITLE12=Z4
TTITLE13=La Dulce Vita
TTITLE14=Vem
EXTD=
EXTT0=
EXTT1=
EXTT2=
EXTT3=
EXTT4=
EXTT5=
EXTT6=
EXTT7=
EXTT8=
EXTT9=
EXTT10=
EXTT11=
EXTT12=
EXTT13=
EXTT14=
PLAYORDER=
